<svg width="32" height="32" viewBox="0 0 32 32" fill="none" xmlns="http://www.w3.org/2000/svg">
<path fill-rule="evenodd" clip-rule="evenodd" d="M21.9143 1.33334C26.7503 1.33334 29.9997 4.72801 29.9997 9.78001V21.5533C29.9997 26.6053 26.7503 30 21.9143 30H9.41834C4.58234 30 1.33301 26.6053 1.33301 21.5533V9.78001C1.33301 4.72801 4.58234 1.33334 9.41834 1.33334H21.9143ZM21.9143 3.33334H9.41834C5.72234 3.33334 3.33301 5.86268 3.33301 9.78001V21.5533C3.33301 25.4707 5.72234 28 9.41834 28H21.9143C25.6117 28 27.9997 25.4707 27.9997 21.5533V9.78001C27.9997 5.86268 25.6117 3.33334 21.9143 3.33334ZM15.6663 9.76974C16.2183 9.76974 16.6663 10.2177 16.6663 10.7697V14.6533L20.555 14.6536C21.107 14.6536 21.555 15.1016 21.555 15.6536C21.555 16.2056 21.107 16.6536 20.555 16.6536L16.6663 16.6533V20.5391C16.6663 21.0911 16.2183 21.5391 15.6663 21.5391C15.1143 21.5391 14.6663 21.0911 14.6663 20.5391V16.6533L10.7777 16.6536C10.2243 16.6536 9.77767 16.2056 9.77767 15.6536C9.77767 15.1016 10.2243 14.6536 10.7777 14.6536L14.6663 14.6533V10.7697C14.6663 10.2177 15.1143 9.76974 15.6663 9.76974Z" fill="white"/>
</svg>
